<?xml version="1.0" encoding="utf-8"?>
<!-- Generator: Adobe Illustrator 25.3.1, SVG Export Plug-In . SVG Version: 6.00 Build 0)  -->
<svg version="1.1" id="Layer_1" xmlns="http://www.w3.org/2000/svg" xmlns:xlink="http://www.w3.org/1999/xlink" x="0px" y="0px"
	 viewBox="0 0 612 355.5" style="enable-background:new 0 0 612 355.5;" xml:space="preserve">
<style type="text/css">
	.st0{fill:#19488D;}
	.st1{fill:#E32227;}
</style>
<g>
	<path class="st0" d="M131.5,51.8h8.7c8.7,0.7,17.3,3.1,24.6,8.1c8.7,5.7,14.9,14.9,17.5,25c3.2,12.5,1.9,26-2.7,38
		c-1.5,4.3-3,8.5-4.5,12.7c7-1.8,13.9-5.1,18.9-10.5c5.4-5.5,8.2-13,10-20.4c12.8-0.1,25.6,0,38.3,0c-6.6,17.5-11.5,36.1-11.1,55
		c0.1,21.8,8.1,42.5,10.2,64c1.6,14.6,1.1,29.6-3,43.7c-3.8,13.2-10.8,25.5-20.4,35.4c-9.6,10-21.6,17.6-34.5,22.6
		c-16.5,6.4-34.4,8.9-52.1,8.5c-21.1-0.4-42.4-5.2-60.5-16.3c-15.6-9.5-28.5-23.9-35-41.1c-6.5-17.1-6-36.9,1.8-53.5
		c6-13,16.9-23.5,29.7-29.7c15.9-7.6,34-9.6,51.3-7.8c2.4-6.3,4.8-12.6,7.3-18.9c-14.6-6.3-27.9-16.6-35.5-30.8
		c-11.7-21.3-9.1-50.1,7.7-68C106.6,58.3,118.9,52.7,131.5,51.8 M121.9,96.4c-2.9,6.4-3.2,14.2-0.1,20.6c3.4,7.1,8.8,13.7,16.1,16.9
		c1.5-3.4,2.7-6.9,4.1-10.3c2.1-5.5,4.6-10.9,5.2-16.8c0.7-4.9,0-10.3-3.2-14.2c-3.3-4-9.1-5.5-14-3.9
		C126.3,89.9,123.5,93,121.9,96.4 M161.8,171.1c-2.9,7.9-6,15.8-8.8,23.8c8.8,4.1,17.9,8.4,24.8,15.5c-4.3,11.1-8.7,22.1-13.2,33.1
		c-6.8-6.8-14.8-12.5-23.8-16c-4.9,12.9-9.6,25.9-14.4,38.8c-12.5,0-25,0-37.5,0c5.6-15,11.1-29.9,16.7-44.9
		c-12.3-0.4-24.6,5.9-31.3,16.3c-2.8,4.4-4.5,9.6-3.8,14.9C71.3,263.6,77,274,85.5,281c11.6,9.6,26.9,13.6,41.7,14.7
		c12.2,0.8,24.8,0.1,36.4-3.8c10.5-3.4,20.3-9.7,27.1-18.5c9-11.3,12.4-26.3,11.4-40.5c-1-10.9-3.6-21.6-5.6-32.3
		c-2.3-12.1-4.2-24.4-4.2-36.8C182.5,167.5,172.3,170,161.8,171.1"/>
	<path class="st1" d="M223.1,90.7C242.4,76,252.2,67.8,258.4,57c8.8-15.3,3.5-28.2-7.7-33.3c-10.4-4.7-22.8-0.3-27.7,10
		c-4.8-10.2-17.2-14.7-27.7-10c-11.1,5.1-16.5,18-7.7,33.3C194,67.8,203.8,76,223.1,90.7"/>
	<path class="st0" d="M274.4,132.4v-0.2c0-15.4,12-28,28.3-28c9.7,0,15.6,2.6,21.2,7.4l-7.5,9c-4.2-3.5-7.9-5.5-14.1-5.5
		c-8.6,0-15.5,7.6-15.5,16.8v0.2c0,9.9,6.8,17.1,16.4,17.1c4.3,0,8.2-1.1,11.2-3.2v-7.7h-12v-10.3h23.5v23.5
		c-5.6,4.7-13.2,8.6-23.1,8.6C286,160.2,274.4,148.4,274.4,132.4"/>
	<path class="st0" d="M334.1,138.8v-0.2c0-11.8,8.4-21.5,20.5-21.5c13.8,0,20.2,10.7,20.2,22.5c0,0.9-0.1,2-0.2,3.1h-28.8
		c1.2,5.3,4.9,8.1,10.1,8.1c3.9,0,6.8-1.2,10-4.2l6.7,5.9c-3.9,4.8-9.4,7.7-16.9,7.7C343.3,160.2,334.1,151.5,334.1,138.8
		 M363.3,135.4c-0.7-5.2-3.8-8.8-8.7-8.8c-4.9,0-8,3.5-9,8.8H363.3z"/>
	<path class="st0" d="M383.5,117.9h11.7v5.9c2.7-3.5,6.2-6.6,12.1-6.6c8.9,0,14.1,5.9,14.1,15.4v26.8h-11.7v-23.1
		c0-5.6-2.6-8.4-7.1-8.4c-4.5,0-7.3,2.9-7.3,8.4v23.1h-11.7V117.9z"/>
	<path class="st0" d="M429.6,138.8v-0.2c0-11.8,8.4-21.5,20.5-21.5c13.8,0,20.2,10.7,20.2,22.5c0,0.9-0.1,2-0.2,3.1h-28.8
		c1.2,5.3,4.9,8.1,10.1,8.1c3.9,0,6.8-1.2,10-4.2l6.7,5.9c-3.9,4.8-9.4,7.7-16.9,7.7C438.8,160.2,429.6,151.5,429.6,138.8
		 M458.8,135.4c-0.7-5.2-3.8-8.8-8.7-8.8c-4.9,0-8,3.5-9,8.8H458.8z"/>
	<path class="st0" d="M478.9,117.9h11.7v8.3c2.4-5.7,6.3-9.4,13.2-9.1v12.3h-0.6c-7.8,0-12.6,4.7-12.6,14.6v15.3h-11.7V117.9z"/>
	<path class="st0" d="M506.8,147.4v-0.2c0-9,6.9-13.2,16.7-13.2c4.2,0,7.2,0.7,10.1,1.7V135c0-4.9-3-7.6-8.9-7.6
		c-4.5,0-7.6,0.8-11.4,2.2l-2.9-9c4.6-2,9-3.3,16.1-3.3c6.4,0,11,1.7,14,4.6c3.1,3.1,4.5,7.6,4.5,13.2v24h-11.4v-4.5
		c-2.9,3.2-6.8,5.2-12.5,5.2C513.2,160.1,506.8,155.6,506.8,147.4 M533.8,144.7v-2.1c-2-0.9-4.6-1.5-7.5-1.5c-5,0-8.1,2-8.1,5.7v0.2
		c0,3.2,2.6,5,6.4,5C530.1,152,533.8,149,533.8,144.7"/>
	<rect x="555.5" y="102.9" class="st0" width="11.7" height="56.4"/>
	<polygon class="st0" points="276.8,179.8 289.7,179.8 303.9,202.6 318.1,179.8 330.9,179.8 330.9,233.8 319.1,233.8 319.1,198.5
		303.9,221.6 303.6,221.6 288.5,198.8 288.5,233.8 276.8,233.8 	"/>
	<path class="st0" d="M342.9,177.4h12.4v10.4h-12.4V177.4z M343.2,192.4h11.7v41.4h-11.7V192.4z"/>
	<rect x="366.5" y="177.4" class="st0" width="11.7" height="56.4"/>
	<rect x="389.8" y="177.4" class="st0" width="11.7" height="56.4"/>
	<path class="st0" d="M409.3,228.3l5-7.7c4.5,3.2,9.2,4.9,13.1,4.9c3.4,0,4.9-1.2,4.9-3.1v-0.2c0-2.6-4-3.4-8.6-4.8
		c-5.8-1.7-12.4-4.4-12.4-12.4v-0.2c0-8.4,6.8-13.1,15.1-13.1c5.2,0,11,1.8,15.4,4.8l-4.5,8.1c-4.1-2.4-8.2-3.9-11.2-3.9
		c-2.9,0-4.3,1.2-4.3,2.9v0.2c0,2.3,3.9,3.4,8.4,4.9c5.8,1.9,12.5,4.7,12.5,12.3v0.2c0,9.2-6.9,13.4-15.8,13.4
		C421.3,234.6,414.8,232.7,409.3,228.3"/>
</g>
</svg>
